<svg xmlns="http://www.w3.org/2000/svg" version="1.1" width="220" height="129"><rect id="backgroundrect" width="100%" height="100%" x="0" y="0" fill="none" stroke="none" class="" style=""/>

<g class="currentLayer" style=""><title>Layer 1</title><g fill-rule="evenodd" id="svg_1" class="">
        <g stroke-width="0" id="svg_2">
            <path d="m110.17014308745729,25.03242991259384 c60.6813536,0 110.17012479999998,23.502022670000002 110.17012479999998,52.3177787 c0,28.81678476 -49.488771199999995,52.3177787 -110.17012479999998,52.3177787 s-110.17012479999998,-23.501336849999998 -110.17012479999998,-52.3177787 c0,-28.81541312 49.488771199999995,-52.3177787 110.17012479999998,-52.3177787 z" fill="#fff" stroke-width="0" id="svg_3"/>
            <path d="m137.61665948745727,29.942901112593844 c22.18936319,2.7099491479999998 41.5812666,8.62350068 55.654293,16.58587088 c-1.788001322,0.47071255700000025 -11.30780016,2.884456047 -26.539519449999997,5.08981313 c-6.658626379999999,-9.43208246 -16.852997769999998,-17.050856839999998 -29.11614519,-21.675684009999998 zm25.44563655,22.186962819999998 c-13.86213675,1.858366454 -31.833021119999998,3.43835857 -52.636685,3.3675133639999997 c0,0 -25.180910030000003,0.47403878400000027 -53.339650500000005,-3.1072103829999995 c10.77148892,-14.40119127 30.54779444,-24.088741680000002 53.0858971,-24.088741680000002 c22.400938659999998,0 42.075057,9.56993228 52.8904384,23.82813008 zm-109.64890159999999,-0.22822717960000014 c-8.94823645,-1.242877295 -18.09673234,-2.9077396359999996 -26.74938037,-5.13850635 c14.10834613,-8.08033124 33.65833105,-14.083656609999998 56.0623559,-16.820764229999998 c-12.38453756,4.67146293 -22.66086444,12.39585359 -29.31400426,21.95961349 zm143.4632567,-3.21135215 c12.0841484,7.6612952199999995 19.47454472,16.97370209 20.19191244,27.037424769999998 h-41.9310348 c-0.28647044310000036,-7.51830175 -2.5563940499999998,-14.64705774 -6.40761626,-21.05330236 c9.52089615,-1.4259569440000002 19.19301561,-3.359695016 28.14776735,-5.98412241 zm-25.03448746,27.037424769999998 h-123.3412979 c0.29978563840000005,-7.28512295 2.614620168,-14.17727104 6.51529,-20.333534269999998 c14.267113460000001,1.905447997 32.88884101,3.4245735880000003 55.410826899999996,3.2153984879999995 c0,0 26.2051822,0.5009229279999995 54.7695852,-3.427694069 c3.9815280100000003,6.2101001 6.34486373,13.17734548 6.64799617,20.54579556 zm-126.636663,0 h-41.9310348 c0.7056059070000008,-9.90015461 7.8656695800000005,-19.07368293 19.601764329999998,-26.66296705 c3.1324142680000002,0.9176614510000005 12.908504039999999,3.56180617 28.60418056,5.83769984 c-3.7682379900000003,6.3479499200000005 -5.9906377,13.39612206 -6.27353845,20.82526721 zm171.8596338,3.2741046799999998 c-0.735336204,10.060979399999999 -8.13896885,19.36824262 -20.23271873,27.02439419 c-8.94960809,-2.619866691 -18.61349771,-4.55110152 -28.12582111,-5.974863839999999 c3.8570516799999996,-6.405215889999999 6.1346599,-13.53157151 6.42784795,-21.049530349999998 h41.934463900000004 zm-51.8925703,20.5437381 c-28.55480152,-3.9249478599999996 -54.7455815,-3.4234076940000002 -54.7455815,-3.4234076940000002 c-22.509984040000003,-0.2089693540000003 -41.1217672,1.307790158 -55.3868232,3.211592187 c-3.9074594499999997,-6.15420577 -6.22861724,-13.04498222 -6.53620751,-20.32976226 h123.3412979 c-0.31095764620000027,7.368107169999999 -2.680253142,14.333637999999999 -6.669256590000001,20.54168064 zm-113.6712359,0.27957795209999997 c-15.634638540000001,2.266086444 -25.399343699999996,4.89846935 -28.58223432,5.82844127 c-11.7446675,-7.588598299999999 -18.9183447,-16.758011699999997 -19.64154189,-26.6543943 h41.9310348 c0.29003670710000035,7.4288022400000004 2.5185710770000003,14.47525983 6.29308432,20.82115229 zm141.7212739,8.36460363 c-14.07096894,7.948310889999999 -33.44126902,13.8501349 -55.6028565,16.557409349999997 c12.24634483,-4.6189977 22.4297431,-12.223712769999999 29.08836948,-21.63864973 c15.10449968,2.185502594 24.599677579999998,4.5781914100000005 26.51551575,5.08124038 zm-110.4958893,16.5556948 c-22.378306600000002,-2.7329927 -41.9070311,-8.7270595 -56.0109194,-16.7923027 c8.64647565,-2.226651794 17.78639879,-3.8889423099999996 26.72571958,-5.1299336 c6.65382564,9.54558567 16.91780776,17.25625993 29.285885639999996,21.921550479999997 zm-25.61091917,-22.410197229999998 c28.14742444,-3.57758003 53.3122177,-3.102683971 53.3122177,-3.102683971 c20.78823293,-0.07084520600000002 38.74883,1.506540794 52.60925219999999,3.363021243 c-10.819496319999999,14.238309019999999 -30.4812699,23.79212453 -52.8630056,23.79212453 c-22.517185150000003,0 -42.280803,-9.67109073 -53.0584643,-24.05239322 z" fill="#0087cf" stroke-width="0" id="svg_4"/>
            <path d="m163.2286073874573,-8.740615697888643e-8 l-52.5921067,42.232795599999996 v-42.232795599999996 h-1.0032860780000001 v42.232795599999996 l-52.5166665,-42.1745009 v1.3555575210000002 l53.017315100000005,42.5791347 l53.0961844,-42.489978099999995 zm0,3.62524452 l-53.0961844,42.6374294 l-53.017315100000005,-42.5791347 v1.3555575210000002 l53.0207442,42.5757056 l53.0927553,-42.486549000000004 zm0,3.62730198 l-53.0961844,42.6374294 l-53.017315100000005,-42.5757056 v1.3555575210000002 l53.017315100000005,42.5757056 l53.0961844,-42.489978099999995 zm0,8.543945560000001 l-53.0961844,42.716298699999996 l-53.017315100000005,-42.658004 v7.4342888 l53.017315100000005,42.3219522 l53.0961844,-42.3185231 zm-125.8033917,11.10308289 l47.256427099999996,39.249478599999996 v62.0975719 h14.34804022 v-65.0980344 l-45.5178734,-36.2524452 zm129.40737579999998,0 l-45.5178734,36.2524452 v65.0946053 h14.3473544 v-62.0975719 l47.256427099999996,-39.2529077 zm-63.825838299999994,42.1676427 v59.1794078 h14.32643689 v-59.1794078 zm-65.5746793,66.3359395 v0.912209182 h145.4898548 v-0.912209182 zm0,20.61060555 v0.912209182 h145.4898548 v-0.9121406000000006 z" fill="#1f1a17" stroke-width="0" id="svg_5"/>
        </g>
        <g stroke-width="0.060489324" id="svg_6">
            <polygon points="134.5497055053711,65.38848114013672 179.24407196044922,28.273117065429688 167.16710662841797,28.273117065429688 122.4964828491211,63.855072021484375 122.4964828491211,126.83375549316406 134.5497055053711,126.83375549316406 " fill="#c4261d" stroke-width="0" id="svg_7"/>
            <polygon points="85.78289031982422,65.38848114013672 41.10515594482422,28.273117065429688 53.172645568847656,28.273117065429688 97.84325408935547,63.855072021484375 97.84325408935547,126.83375549316406 85.78289031982422,126.83375549316406 " fill="#fff" stroke-width="0" id="svg_8"/>
            <polygon points="116.2440414428711,126.83375549316406 116.2440414428711,70.27871704101562 104.0957260131836,70.27871704101562 104.0957260131836,126.83375549316406 " fill="#00458e" stroke-width="0" id="svg_9"/>
        </g>
    </g></g></svg>