<?xml version="1.0" encoding="UTF-8"?>
<svg version="1.1" viewBox="0 0 250 250" xmlns="http://www.w3.org/2000/svg">
    <g transform="matrix(.34291 0 0 .34291 -14.121 -4.3257)" fill-rule="evenodd">
        <g>
            <path d="m405.71 199.55c176.96 0 321.28 68.537 321.28 152.57 0 84.036-144.32 152.57-321.28 152.57s-321.28-68.535-321.28-152.57c0-84.032 144.32-152.57 321.28-152.57z"
                  fill="#fff"/>
            <path d="m485.75 213.87c64.709 7.9028 121.26 25.148 162.3 48.368-5.2142 1.3727-32.976 8.4117-77.395 14.843-19.418-27.506-49.147-49.724-84.909-63.211zm74.205 64.702c-40.425 5.4194-92.832 10.027-153.5 9.8204 0 0-73.433 1.3824-155.55-9.0613 31.412-41.997 89.084-70.248 154.81-70.248 65.326 0 122.7 27.908 154.24 69.488zm-319.76-0.66556c-26.095-3.6245-52.774-8.4796-78.007-14.985 41.143-23.564 98.155-41.071 163.49-49.053-36.116 13.623-66.084 36.149-85.486 64.039zm418.37-9.365c35.24 22.342 56.792 49.499 58.884 78.847h-122.28c-0.83541-21.925-7.455-42.714-18.686-61.396 27.765-4.1584 55.971-9.7976 82.085-17.451zm-73.006 78.847h-359.69c0.87424-21.245 7.6248-41.344 19-59.297 41.606 5.5567 95.911 9.9868 161.59 9.3768 0 0 76.42 1.4608 159.72-9.9959 11.611 18.11 18.503 38.428 19.387 59.916zm-369.3 0h-122.28c2.0577-28.871 22.938-55.623 57.163-77.755 9.1348 2.6761 37.644 10.387 83.416 17.024-10.989 18.512-17.47 39.066-18.295 60.731zm501.18 9.548c-2.1444 29.34-23.735 56.482-59.003 78.809-26.099-7.6401-54.281-13.272-82.021-17.424 11.248-18.679 17.89-39.461 18.745-61.385h122.29zm-151.33 59.91c-83.272-11.446-159.65-9.9834-159.65-9.9834-65.644-0.6094-119.92 3.8138-161.52 9.3657-11.395-17.947-18.164-38.042-19.061-59.286h359.69c-0.90682 21.487-7.8162 41.8-19.449 59.904zm-331.49 0.81531c-45.594 6.6084-74.07 14.285-83.352 16.997-34.25-22.13-55.17-48.87-57.279-77.73h122.28c0.84581 21.664 7.3447 42.213 18.352 60.719zm413.29 24.393c-41.034 23.179-97.522 40.39-162.15 48.285 35.713-13.47 65.41-35.647 84.828-63.103 44.048 6.3734 71.738 13.351 77.325 14.818zm-322.23 48.28c-65.26-7.97-122.21-25.45-163.34-48.97 25.215-6.4934 51.869-11.341 77.938-14.96 19.404 27.837 49.336 50.323 85.404 63.928zm-74.687-65.353c82.084-10.433 155.47-9.0481 155.47-9.0481 60.623-0.2066 113 4.3934 153.42 9.8073-31.552 41.522-88.89 69.383-154.16 69.383-65.665 0-123.3-28.203-154.73-70.142z"
                  fill="#0087cf"/>
            <path d="m560.44 126.55-153.37 123.16v-123.16h-2.9258v123.16l-153.15-122.99v3.9531l154.61 124.17 154.84-123.91zm0 10.572-154.84 124.34-154.61-124.17v3.9531l154.62 124.16 154.83-123.9zm0 10.578-154.84 124.34-154.61-124.16v3.9531l154.61 124.16 154.84-123.91zm0 24.916-154.84 124.57-154.61-124.4v21.68l154.61 123.42 154.84-123.41zm-366.87 32.379 137.81 114.46v181.09h41.842v-189.84l-132.74-105.72zm377.38 0-132.74 105.72v189.83h41.84v-181.09l137.81-114.47zm-186.13 122.97v172.58h41.779v-172.58zm-191.23 193.45v2.6602h424.28v-2.6602zm0 60.105v2.6602h424.28v-2.66z"
                  fill="#1f1a17"/>
        </g>
        <g fill="#256398">
            <g transform="translate(215 530)">
                <path d="M 43.355 0.651 L 46.93 42.576 L 37.635 42.576 L 37.115 29.836 L 35.945 16.056 L 35.295 16.056 L 26.975 38.351 L 18.915 38.351 L 11.635 16.056 L 10.92 16.056 L 9.62 28.861 L 8.775 42.576 L 0 42.576 L 4.16 0.651 L 16.315 0.651 L 17.81 6.761 L 23.205 24.701 L 23.855 24.701 L 29.705 6.956 L 31.395 0.651 L 43.355 0.651 Z"/>
                <path d="M 79.43 0.651 L 80.015 1.431 L 79.3 9.101 L 70.07 8.841 L 65.585 8.841 L 65.195 29.121 L 65.585 42.576 L 55.055 42.576 L 55.575 30.161 L 55.055 0.651 L 79.43 0.651 Z"
                      transform="translate(40 0)"/>
                <path d="M 85.02 42.576 L 85.54 30.161 L 85.02 0.911 L 95.745 0.391 L 95.03 26.716 L 95.68 26.716 L 110.565 0.651 L 121.81 0.651 L 121.225 29.121 L 121.615 42.576 L 111.085 42.576 L 111.605 30.161 L 111.605 16.446 L 110.955 16.446 L 96.005 42.576 L 85.02 42.576 Z"
                      transform="translate(80 0)"/>
                <path d="M 172.965 0.651 L 176.54 42.576 L 167.245 42.576 L 166.725 29.836 L 165.555 16.056 L 164.905 16.056 L 156.585 38.351 L 148.525 38.351 L 141.245 16.056 L 140.53 16.056 L 139.23 28.861 L 138.385 42.576 L 129.61 42.576 L 133.77 0.651 L 145.925 0.651 L 147.42 6.761 L 152.815 24.701 L 153.465 24.701 L 159.315 6.956 L 161.005 0.651 L 172.965 0.651 Z"
                      transform="translate(120 0)"/>
                <path d="M 207.998 0.627 A 24.007 24.007 0 0 0 202.345 0.001 A 26.209 26.209 0 0 0 196.462 0.624 A 17.243 17.243 0 0 0 187.362 5.786 Q 183.801 9.675 182.634 15.769 A 34.39 34.39 0 0 0 182.065 22.231 A 37.542 37.542 0 0 0 182.179 25.199 Q 182.428 28.346 183.227 30.977 A 17.99 17.99 0 0 0 186.94 37.798 A 15.706 15.706 0 0 0 195.074 42.642 A 23.157 23.157 0 0 0 200.72 43.291 Q 210.405 43.291 215.735 37.343 A 18.191 18.191 0 0 0 218.166 33.888 Q 219.775 30.933 220.491 27.165 A 35.162 35.162 0 0 0 221.065 20.606 Q 221.065 15.82 219.921 12.094 A 17.461 17.461 0 0 0 216.19 5.363 A 15.797 15.797 0 0 0 207.998 0.627 Z M 201.435 8.451 Q 198.38 8.451 196.56 9.653 A 5.845 5.845 0 0 0 194.826 11.471 Q 194.371 12.2 194.041 13.119 A 11.044 11.044 0 0 0 193.895 13.553 A 15.342 15.342 0 0 0 193.416 15.621 Q 193.05 17.828 193.05 20.866 A 58.655 58.655 0 0 0 193.133 24.087 Q 193.314 27.376 193.895 29.543 Q 194.74 32.696 196.593 34.061 Q 198.445 35.426 201.63 35.426 A 13.12 13.12 0 0 0 203.58 35.29 Q 204.582 35.139 205.403 34.821 A 6.14 6.14 0 0 0 206.57 34.223 A 5.697 5.697 0 0 0 208.279 32.419 Q 208.841 31.507 209.203 30.291 A 15.966 15.966 0 0 0 209.648 28.282 Q 210.015 26.004 210.015 22.816 A 57.309 57.309 0 0 0 209.932 19.632 Q 209.767 16.667 209.269 14.621 A 15.497 15.497 0 0 0 209.17 14.236 A 11.929 11.929 0 0 0 208.529 12.42 Q 208.111 11.501 207.566 10.814 A 5.515 5.515 0 0 0 206.505 9.783 Q 204.685 8.451 201.435 8.451 Z"
                      transform="translate(160 0)"/>
            </g>
            <!--<path transform="translate(230 590)"
                  d="M 49.75 32.501 L 52.25 9.451 L 57.3 9.451 L 58.4 12.901 L 62.45 24.251 L 62.8 24.251 L 67.2 12.901 L 68.35 9.451 L 73.3 9.451 L 75.45 32.501 L 71.4 32.501 L 71 25.301 L 70.15 16.101 L 69.8 16.101 L 64.15 30.051 L 60.65 30.051 L 55.45 16.101 L 55.15 16.101 L 54.2 24.651 L 53.6 32.501 L 49.75 32.501 Z M 287.3 28.751 L 290.7 28.751 L 290.7 38.001 L 287.3 38.301 L 286.7 32.501 L 268.6 32.501 L 268.8 22.851 L 268.65 9.451 L 273.65 9.451 L 273.45 22.401 L 273.55 28.751 L 282.45 28.751 L 282.55 22.851 L 282.4 9.451 L 287.35 9.451 L 287.15 22.401 L 287.3 28.751 Z M 215.4 32.501 L 215.6 22.851 L 215.4 9.551 L 220.35 9.351 L 220.25 25.451 L 220.55 25.451 L 229.8 9.451 L 234.8 9.451 L 234.6 22.251 L 234.8 32.501 L 229.85 32.501 L 230 23.201 L 230.05 16.201 L 229.7 16.201 L 220.3 32.501 L 215.4 32.501 Z M 108.9 9.301 L 109.65 12.551 L 114.65 27.201 L 115 27.201 L 120 13.001 L 120.85 9.451 L 125.25 9.451 L 117.3 31.351 A 31.014 31.014 0 0 1 116.385 33.662 Q 115.9 34.75 115.379 35.644 A 14.367 14.367 0 0 1 114.65 36.776 Q 113.2 38.801 111.075 40.001 Q 109.437 40.926 107.041 41.643 A 33.761 33.761 0 0 1 105.55 42.051 L 105.1 42.051 A 10.29 10.29 0 0 1 103.783 40.417 A 13.394 13.394 0 0 1 103 39.051 L 103.15 38.501 A 24.797 24.797 0 0 0 105.413 37.983 Q 106.502 37.676 107.398 37.291 A 10.712 10.712 0 0 0 108.75 36.601 Q 110.8 35.351 112.5 32.501 L 104.1 9.551 L 108.9 9.301 Z M 261.5 9.451 L 261.3 22.401 L 261.45 32.501 L 256.45 32.501 L 256.65 22.851 L 251.55 22.801 L 246.75 22.901 L 246.9 32.501 L 241.9 32.501 L 242.1 22.851 L 241.95 9.451 L 246.95 9.451 L 246.8 19.051 L 251.75 19.101 L 256.6 19.101 L 256.55 9.451 L 261.5 9.451 Z M 100.55 9.451 L 100.35 23.901 L 100.55 32.501 L 95.5 32.501 L 95.75 24.401 L 95.6 13.051 L 86.6 13.051 L 86.45 23.901 L 86.6 32.501 L 81.6 32.501 L 81.8 24.401 L 81.65 9.451 L 100.55 9.451 Z M 207.15 28.851 L 210.35 28.851 L 210.35 38.001 L 207 38.301 L 206.4 32.501 L 190.45 32.501 L 189.85 38.001 L 186.5 38.301 L 186.5 28.851 L 188.35 28.851 Q 189.85 27.901 190.7 26.301 A 9.745 9.745 0 0 0 191.246 25.05 Q 191.73 23.712 192.075 21.826 A 55.557 55.557 0 0 0 192.339 20.237 Q 192.737 17.626 193.15 13.651 L 193.6 9.451 L 207.25 9.451 L 207.05 22.401 L 207.15 28.851 Z M 45.9 28.601 L 46.35 28.951 L 45.85 31.751 Q 44.4 32.651 42.7 32.851 A 4.549 4.549 0 0 1 41.479 32.569 A 3.582 3.582 0 0 1 40.2 31.726 A 3.991 3.991 0 0 1 39.25 30.095 A 5.467 5.467 0 0 1 39.05 29.151 L 38.7 29.151 A 19.041 19.041 0 0 1 36.612 31.072 Q 35.41 32.014 34.187 32.6 A 10.736 10.736 0 0 1 33.5 32.901 A 11.203 11.203 0 0 1 31.302 32.665 Q 29.975 32.379 28.947 31.747 A 6.254 6.254 0 0 1 28.075 31.101 Q 26.1 29.351 26.1 26.351 Q 26.1 22.933 28.96 21.492 A 8.677 8.677 0 0 1 30.95 20.801 L 38.85 19.051 L 38.9 16.351 Q 38.9 15.077 38.462 14.23 A 2.834 2.834 0 0 0 37.975 13.551 Q 37.13 12.683 35.597 12.608 A 6.067 6.067 0 0 0 35.3 12.601 A 7.906 7.906 0 0 0 32.537 13.112 A 9.45 9.45 0 0 0 31.9 13.376 A 13.37 13.37 0 0 0 30.461 14.15 Q 29.777 14.569 29.046 15.109 A 26.961 26.961 0 0 0 28.15 15.801 L 27.75 15.551 L 27.1 12.001 A 18.281 18.281 0 0 1 31.199 9.872 A 14.375 14.375 0 0 1 36.1 9.001 A 11.669 11.669 0 0 1 38.301 9.196 Q 39.572 9.44 40.574 9.99 A 6.277 6.277 0 0 1 41.55 10.651 A 5.387 5.387 0 0 1 43.491 14.274 A 7.798 7.798 0 0 1 43.55 15.251 A 15.681 15.681 0 0 1 43.539 15.736 Q 43.502 16.861 43.331 19.853 A 819.245 819.245 0 0 1 43.25 21.251 A 771.538 771.538 0 0 0 43.148 22.98 Q 42.977 25.948 42.954 26.865 A 9.69 9.69 0 0 0 42.95 27.101 A 4.396 4.396 0 0 0 42.97 27.54 Q 43.015 27.983 43.158 28.253 A 0.924 0.924 0 0 0 43.275 28.426 A 0.938 0.938 0 0 0 43.634 28.675 Q 43.928 28.797 44.372 28.801 A 3.362 3.362 0 0 0 44.4 28.801 A 3.711 3.711 0 0 0 44.721 28.785 Q 45.037 28.757 45.476 28.68 A 17.7 17.7 0 0 0 45.9 28.601 Z M 170.3 0.001 Q 176.95 0.001 180.55 4.101 Q 183.581 7.553 184.06 13.487 A 28.78 28.78 0 0 1 184.15 15.801 A 28.067 28.067 0 0 1 183.745 20.726 Q 183.259 23.449 182.19 25.607 A 13.716 13.716 0 0 1 180.3 28.476 A 12.501 12.501 0 0 1 173.087 32.597 A 18.733 18.733 0 0 1 169.35 32.951 A 16.514 16.514 0 0 1 165.17 32.451 A 11.433 11.433 0 0 1 159.175 28.726 A 13.896 13.896 0 0 1 156.55 23.806 Q 155.912 21.75 155.702 19.272 A 29.946 29.946 0 0 1 155.6 16.751 Q 155.6 8.701 159.425 4.351 A 12.436 12.436 0 0 1 166.398 0.384 A 18.806 18.806 0 0 1 170.3 0.001 Z M 23.05 0.401 L 10.7 15.501 A 185.635 185.635 0 0 0 18.595 25.368 A 223.594 223.594 0 0 0 23.95 31.401 L 23.9 32.001 Q 21.7 32.601 18.95 32.951 L 18.3 32.651 A 350.078 350.078 0 0 1 12.09 24.839 Q 8.381 20.026 5.4 15.751 L 5.4 15.401 L 15.4 3.301 L 17.4 0.401 L 23.05 0.401 Z M 143.35 10.301 L 142.5 14.551 L 142 14.751 Q 139.947 13.55 138.134 13.279 A 7.001 7.001 0 0 0 137.1 13.201 A 5.63 5.63 0 0 0 135.205 13.506 A 4.785 4.785 0 0 0 132.95 15.201 Q 131.76 16.788 131.514 19.382 A 15.054 15.054 0 0 0 131.45 20.801 Q 131.45 24.651 133 26.776 A 4.98 4.98 0 0 0 136.624 28.859 A 6.967 6.967 0 0 0 137.4 28.901 Q 139.666 28.901 142.219 27.669 A 17.051 17.051 0 0 0 142.75 27.401 L 143.2 27.701 L 142.7 31.801 A 17.498 17.498 0 0 1 137.744 32.91 A 16.214 16.214 0 0 1 136.6 32.951 Q 131.9 32.951 129.275 29.826 Q 126.988 27.103 126.693 22.577 A 21.213 21.213 0 0 1 126.65 21.201 Q 126.65 15.501 129.45 12.251 A 9.168 9.168 0 0 1 135.278 9.135 A 13.278 13.278 0 0 1 137.2 9.001 Q 138.8 9.001 140.45 9.351 Q 142.1 9.701 143.35 10.301 Z M 319.95 32.501 L 320.15 22.851 L 320 9.451 L 328.95 9.401 A 16.573 16.573 0 0 1 331.212 9.545 Q 333.506 9.862 334.95 10.876 A 4.721 4.721 0 0 1 337.004 14.312 A 6.522 6.522 0 0 1 337.05 15.101 Q 337.05 16.901 336.05 18.301 A 6.2 6.2 0 0 1 334.497 19.803 A 8.488 8.488 0 0 1 333.15 20.551 Q 337.867 21.61 338.043 25.634 A 7.242 7.242 0 0 1 338.05 25.951 Q 338.05 29.401 335.325 31.026 A 9.519 9.519 0 0 1 333.085 31.967 Q 330.719 32.651 327.25 32.651 A 178.439 178.439 0 0 1 322.317 32.58 A 210.319 210.319 0 0 1 319.95 32.501 Z M 5.2 0.401 L 4.95 22.401 L 5.15 32.501 L 0 32.501 L 0.25 22.851 L 0 0.401 L 5.2 0.401 Z M 307.871 9.358 A 12.436 12.436 0 0 0 304.8 9.001 A 13.719 13.719 0 0 0 302.019 9.268 A 9.107 9.107 0 0 0 296.85 12.201 A 9.753 9.753 0 0 0 295.432 14.347 Q 294.05 17.17 294.05 21.351 A 21.101 21.101 0 0 0 294.114 23.024 Q 294.46 27.374 296.675 29.926 A 8.428 8.428 0 0 0 301.079 32.593 A 12.436 12.436 0 0 0 304.15 32.951 A 13.719 13.719 0 0 0 306.931 32.683 A 9.107 9.107 0 0 0 312.1 29.751 A 9.753 9.753 0 0 0 313.518 27.604 Q 314.9 24.781 314.9 20.601 A 21.101 21.101 0 0 0 314.836 18.927 Q 314.49 14.578 312.275 12.026 A 8.428 8.428 0 0 0 307.871 9.358 Z M 355.421 9.358 A 12.436 12.436 0 0 0 352.35 9.001 A 13.719 13.719 0 0 0 349.569 9.268 A 9.107 9.107 0 0 0 344.4 12.201 A 9.753 9.753 0 0 0 342.982 14.347 Q 341.6 17.17 341.6 21.351 A 21.101 21.101 0 0 0 341.664 23.024 Q 342.01 27.374 344.225 29.926 A 8.428 8.428 0 0 0 348.629 32.593 A 12.436 12.436 0 0 0 351.7 32.951 A 13.719 13.719 0 0 0 354.481 32.683 A 9.107 9.107 0 0 0 359.65 29.751 A 9.753 9.753 0 0 0 361.068 27.604 Q 362.45 24.781 362.45 20.601 A 21.101 21.101 0 0 0 362.386 18.927 Q 362.04 14.578 359.825 12.026 A 8.428 8.428 0 0 0 355.421 9.358 Z M 169.9 4.201 A 11.189 11.189 0 0 0 167.224 4.501 A 7.11 7.11 0 0 0 163.125 7.126 A 9.164 9.164 0 0 0 161.775 9.75 Q 160.955 12.164 160.903 15.674 A 32.428 32.428 0 0 0 160.9 16.151 A 32.321 32.321 0 0 0 161.067 19.564 Q 161.438 23.046 162.633 25.174 A 7.964 7.964 0 0 0 163.075 25.876 A 7.027 7.027 0 0 0 167.612 28.746 A 11.085 11.085 0 0 0 169.8 28.951 A 11.337 11.337 0 0 0 172.441 28.663 A 7.048 7.048 0 0 0 176.6 26.001 A 9.182 9.182 0 0 0 177.897 23.454 Q 178.8 20.805 178.8 16.801 Q 178.8 10.909 177.04 7.87 A 7.772 7.772 0 0 0 176.625 7.226 A 7.012 7.012 0 0 0 172.211 4.427 A 11.137 11.137 0 0 0 169.9 4.201 Z M 202.45 28.851 L 202.55 22.851 L 202.4 12.801 L 197.2 12.801 L 197 14.451 A 109.228 109.228 0 0 1 196.68 17.43 Q 196.289 20.628 195.79 22.795 A 23.915 23.915 0 0 1 195.475 24.026 Q 194.816 26.322 193.765 27.794 A 7.15 7.15 0 0 1 192.85 28.851 L 202.45 28.851 Z M 304.5 12.551 A 5.896 5.896 0 0 0 301.841 13.11 Q 298.8 14.626 298.8 20.251 A 25.168 25.168 0 0 0 298.911 22.701 Q 299.152 25.156 299.917 26.693 A 6.151 6.151 0 0 0 300.2 27.201 A 4.529 4.529 0 0 0 303.465 29.372 A 6.504 6.504 0 0 0 304.5 29.451 Q 307.35 29.451 308.75 27.551 Q 310.15 25.651 310.15 21.751 A 25.168 25.168 0 0 0 310.039 19.301 Q 309.798 16.846 309.033 15.309 A 6.151 6.151 0 0 0 308.75 14.801 A 4.511 4.511 0 0 0 305.518 12.63 A 6.299 6.299 0 0 0 304.5 12.551 Z M 352.05 12.551 A 5.896 5.896 0 0 0 349.391 13.11 Q 346.35 14.626 346.35 20.251 A 25.168 25.168 0 0 0 346.461 22.701 Q 346.702 25.156 347.467 26.693 A 6.151 6.151 0 0 0 347.75 27.201 A 4.529 4.529 0 0 0 351.015 29.372 A 6.504 6.504 0 0 0 352.05 29.451 Q 354.9 29.451 356.3 27.551 Q 357.7 25.651 357.7 21.751 A 25.168 25.168 0 0 0 357.589 19.301 Q 357.348 16.846 356.583 15.309 A 6.151 6.151 0 0 0 356.3 14.801 A 4.511 4.511 0 0 0 353.068 12.63 A 6.299 6.299 0 0 0 352.05 12.551 Z M 329.5 22.401 L 324.55 22.451 L 324.65 29.501 Q 326.25 29.651 327.8 29.651 A 11.709 11.709 0 0 0 329.363 29.553 Q 330.952 29.339 331.95 28.651 A 3.206 3.206 0 0 0 333.365 26.322 A 4.476 4.476 0 0 0 333.4 25.751 A 2.969 2.969 0 0 0 332.896 24.006 Q 331.998 22.721 329.5 22.401 Z M 324.75 12.551 L 324.6 19.301 L 328.9 19.451 A 6.573 6.573 0 0 0 330.019 19.122 Q 330.641 18.872 331.108 18.507 A 3.574 3.574 0 0 0 331.5 18.151 A 3.241 3.241 0 0 0 332.357 16.331 A 4.457 4.457 0 0 0 332.4 15.701 Q 332.4 14.101 331.15 13.301 A 4.116 4.116 0 0 0 330.138 12.847 Q 329.165 12.548 327.757 12.507 A 15.746 15.746 0 0 0 327.3 12.501 Q 325.65 12.501 324.75 12.551 Z M 38.85 22.001 L 32.35 23.551 A 3.623 3.623 0 0 0 31.836 23.703 Q 31.581 23.801 31.384 23.932 A 1.568 1.568 0 0 0 31.05 24.226 Q 30.654 24.696 30.65 25.682 A 4.968 4.968 0 0 0 30.65 25.701 Q 30.65 27.201 31.475 28.051 A 2.742 2.742 0 0 0 32.997 28.841 A 3.946 3.946 0 0 0 33.7 28.901 Q 36.05 28.901 38.7 25.851 L 38.85 22.001 Z"/>-->
            <path transform="translate(180 600)"
                  d="M 89.1 0.401 L 92.15 32.501 L 87.55 32.501 L 86.9 22.751 L 85.4 8.251 L 85.05 8.251 L 76.8 28.951 L 72.7 28.951 L 65.05 8.251 L 64.6 8.251 L 63.1 22.301 L 62.3 32.501 L 57.95 32.501 L 61.3 0.401 L 67.2 0.401 L 68.7 5.201 L 74.85 22.251 L 75.25 22.251 L 81.75 5.051 L 83.25 0.401 L 89.1 0.401 Z M 263.5 32.501 L 263.75 22.851 L 263.5 0.551 L 268.7 0.301 L 268.4 24.501 L 268.8 24.501 L 283.85 0.401 L 289.3 0.401 L 289.05 22.401 L 289.25 32.501 L 284.05 32.501 L 284.3 22.851 L 284.3 8.401 L 283.9 8.401 L 268.85 32.501 L 263.5 32.501 Z M 358.1 28.251 L 362.9 28.251 L 362.9 38.651 L 359.05 39.001 L 358.3 32.501 L 334.55 32.501 L 334.8 22.851 L 334.55 0.401 L 339.75 0.401 L 339.5 22.401 L 339.6 28.251 L 353.15 28.251 L 353.3 22.851 L 353.05 0.401 L 358.25 0.401 L 358 22.401 L 358.1 28.251 Z M 324.8 0.401 L 324.55 22.401 L 324.7 32.501 L 319.55 32.501 L 319.8 22.851 L 319.75 18.501 L 311.55 18.451 L 304.05 18.501 L 304 22.401 L 304.2 32.501 L 299.1 32.501 L 299.3 22.851 L 299.1 0.401 L 304.25 0.401 L 304.1 14.201 L 311.95 14.301 L 319.7 14.201 L 319.55 0.401 L 324.8 0.401 Z M 124.1 0.401 L 123.85 22.401 L 124 32.501 L 118.9 32.501 L 119.1 22.851 L 118.95 4.451 L 105.65 4.451 L 105.45 22.401 L 105.65 32.501 L 100.5 32.501 L 100.75 22.851 L 100.5 0.401 L 124.1 0.401 Z M 252.45 28.251 L 256.75 28.251 L 256.75 38.651 L 252.9 39.001 L 252.15 32.501 L 230.7 32.501 L 230 38.651 L 226.1 39.001 L 226.1 28.251 L 228.75 28.251 A 7.79 7.79 0 0 0 231.648 25.464 A 9.763 9.763 0 0 0 232.05 24.751 Q 233.199 22.501 233.935 18.465 A 47.64 47.64 0 0 0 234 18.101 Q 234.75 13.801 235.45 6.001 L 236 0.401 L 252.55 0.401 L 252.35 22.401 L 252.45 28.251 Z M 151.75 0.451 L 156.85 0.451 L 147.55 22.601 A 58.393 58.393 0 0 1 146.451 24.905 Q 145.362 27.055 144.392 28.421 A 14.157 14.157 0 0 1 144.075 28.851 Q 142.5 30.901 140.375 31.776 A 11.758 11.758 0 0 1 138.728 32.303 Q 136.992 32.733 134.588 32.898 A 37.601 37.601 0 0 1 134.55 32.901 L 134.1 32.851 Q 133.55 31.101 133.2 28.851 L 133.45 28.351 A 48.082 48.082 0 0 0 135.247 28.108 Q 137.112 27.818 138.338 27.443 A 9.532 9.532 0 0 0 139.1 27.176 Q 140.9 26.451 142.05 24.801 L 129.85 0.451 L 135.4 0.401 L 136.55 3.551 L 144 19.301 L 144.55 19.301 L 150.8 3.301 L 151.75 0.451 Z M 182.4 2.251 L 181.45 6.801 L 180.95 6.951 Q 177.6 4.351 173.55 4.351 A 10.378 10.378 0 0 0 170.77 4.702 A 7.382 7.382 0 0 0 166.825 7.326 A 9.527 9.527 0 0 0 165.325 10.209 Q 164.887 11.525 164.681 13.134 A 24.267 24.267 0 0 0 164.5 16.201 Q 164.5 20.016 165.435 22.678 A 10.13 10.13 0 0 0 166.85 25.401 A 7.616 7.616 0 0 0 172.43 28.495 A 10.992 10.992 0 0 0 173.55 28.551 Q 175.65 28.551 177.725 27.826 Q 179.8 27.101 181.55 25.801 L 182.05 26.101 L 181.65 30.801 A 21.321 21.321 0 0 1 177.109 32.439 A 17.487 17.487 0 0 1 173.15 32.901 A 17.343 17.343 0 0 1 168.876 32.404 A 11.722 11.722 0 0 1 162.75 28.701 A 13.732 13.732 0 0 1 160.041 23.706 Q 159.1 20.686 159.1 16.751 A 26.873 26.873 0 0 1 159.502 11.947 Q 159.987 9.284 161.055 7.178 A 13.282 13.282 0 0 1 162.925 4.401 A 12.446 12.446 0 0 1 169.968 0.414 A 18.669 18.669 0 0 1 173.75 0.051 A 18.523 18.523 0 0 1 178.598 0.662 A 15.431 15.431 0 0 1 182.4 2.251 Z M 43.2 0.401 L 53.55 32.501 L 48.25 32.501 L 47.5 28.901 L 46.1 24.451 L 39.3 24.301 L 33.15 24.451 L 31.65 28.651 L 30.85 32.501 L 25.7 32.501 L 37.15 0.401 L 43.2 0.401 Z M 402.35 32.501 L 402.3 32.501 L 402.65 22.851 L 402.3 0.401 L 412.3 0.351 A 17.181 17.181 0 0 1 415.113 0.566 Q 417.79 1.011 419.525 2.376 Q 422.1 4.401 422.1 8.251 A 9.74 9.74 0 0 1 421.843 10.538 A 7.471 7.471 0 0 1 420.85 12.876 Q 419.6 14.801 417.3 15.801 Q 420.65 16.501 422.275 18.426 Q 423.86 20.304 423.899 23.348 A 12.042 12.042 0 0 1 423.9 23.501 A 8.461 8.461 0 0 1 422.593 28.3 Q 420.385 31.614 414.447 32.432 A 31.6 31.6 0 0 1 410.15 32.701 Q 405.901 32.701 403.012 32.541 A 65.497 65.497 0 0 1 402.35 32.501 Z M 209.7 0.001 Q 216.35 0.001 219.95 4.101 Q 222.981 7.553 223.46 13.487 A 28.78 28.78 0 0 1 223.55 15.801 A 28.067 28.067 0 0 1 223.145 20.726 Q 222.659 23.449 221.59 25.607 A 13.716 13.716 0 0 1 219.7 28.476 A 12.501 12.501 0 0 1 212.487 32.597 A 18.733 18.733 0 0 1 208.75 32.951 A 16.514 16.514 0 0 1 204.57 32.451 A 11.433 11.433 0 0 1 198.575 28.726 A 13.896 13.896 0 0 1 195.95 23.806 Q 195.312 21.75 195.102 19.272 A 29.946 29.946 0 0 1 195 16.751 Q 195 8.701 198.825 4.351 A 12.436 12.436 0 0 1 205.798 0.384 A 18.806 18.806 0 0 1 209.7 0.001 Z M 381.15 0.001 Q 387.8 0.001 391.4 4.101 Q 394.431 7.553 394.91 13.487 A 28.78 28.78 0 0 1 395 15.801 A 28.067 28.067 0 0 1 394.595 20.726 Q 394.109 23.449 393.04 25.607 A 13.716 13.716 0 0 1 391.15 28.476 A 12.501 12.501 0 0 1 383.937 32.597 A 18.733 18.733 0 0 1 380.2 32.951 A 16.514 16.514 0 0 1 376.02 32.451 A 11.433 11.433 0 0 1 370.025 28.726 A 13.896 13.896 0 0 1 367.4 23.806 Q 366.762 21.75 366.552 19.272 A 29.946 29.946 0 0 1 366.45 16.751 Q 366.45 8.701 370.275 4.351 A 12.436 12.436 0 0 1 377.248 0.384 A 18.806 18.806 0 0 1 381.15 0.001 Z M 443.5 0.001 Q 450.15 0.001 453.75 4.101 Q 456.781 7.553 457.26 13.487 A 28.78 28.78 0 0 1 457.35 15.801 A 28.067 28.067 0 0 1 456.945 20.726 Q 456.459 23.449 455.39 25.607 A 13.716 13.716 0 0 1 453.5 28.476 A 12.501 12.501 0 0 1 446.287 32.597 A 18.733 18.733 0 0 1 442.55 32.951 A 16.514 16.514 0 0 1 438.37 32.451 A 11.433 11.433 0 0 1 432.375 28.726 A 13.896 13.896 0 0 1 429.75 23.806 Q 429.112 21.75 428.902 19.272 A 29.946 29.946 0 0 1 428.8 16.751 Q 428.8 8.701 432.625 4.351 A 12.436 12.436 0 0 1 439.598 0.384 A 18.806 18.806 0 0 1 443.5 0.001 Z M 23.05 0.401 L 10.7 15.501 A 185.635 185.635 0 0 0 18.595 25.368 A 223.594 223.594 0 0 0 23.95 31.401 L 23.9 32.001 Q 21.7 32.601 18.95 32.951 L 18.3 32.651 A 350.078 350.078 0 0 1 12.09 24.839 Q 8.381 20.026 5.4 15.751 L 5.4 15.401 L 15.4 3.301 L 17.4 0.401 L 23.05 0.401 Z M 5.2 0.401 L 4.95 22.401 L 5.15 32.501 L 0 32.501 L 0.25 22.851 L 0 0.401 L 5.2 0.401 Z M 209.3 4.201 A 11.189 11.189 0 0 0 206.624 4.501 A 7.11 7.11 0 0 0 202.525 7.126 A 9.164 9.164 0 0 0 201.175 9.75 Q 200.355 12.164 200.303 15.674 A 32.428 32.428 0 0 0 200.3 16.151 A 32.321 32.321 0 0 0 200.467 19.564 Q 200.838 23.046 202.033 25.174 A 7.964 7.964 0 0 0 202.475 25.876 A 7.027 7.027 0 0 0 207.012 28.746 A 11.085 11.085 0 0 0 209.2 28.951 A 11.337 11.337 0 0 0 211.841 28.663 A 7.048 7.048 0 0 0 216 26.001 A 9.182 9.182 0 0 0 217.297 23.454 Q 218.2 20.805 218.2 16.801 Q 218.2 10.909 216.44 7.87 A 7.772 7.772 0 0 0 216.025 7.226 A 7.012 7.012 0 0 0 211.611 4.427 A 11.137 11.137 0 0 0 209.3 4.201 Z M 380.75 4.201 A 11.189 11.189 0 0 0 378.074 4.501 A 7.11 7.11 0 0 0 373.975 7.126 A 9.164 9.164 0 0 0 372.625 9.75 Q 371.805 12.164 371.753 15.674 A 32.428 32.428 0 0 0 371.75 16.151 A 32.321 32.321 0 0 0 371.917 19.564 Q 372.288 23.046 373.483 25.174 A 7.964 7.964 0 0 0 373.925 25.876 A 7.027 7.027 0 0 0 378.462 28.746 A 11.085 11.085 0 0 0 380.65 28.951 A 11.337 11.337 0 0 0 383.291 28.663 A 7.048 7.048 0 0 0 387.45 26.001 A 9.182 9.182 0 0 0 388.747 23.454 Q 389.65 20.805 389.65 16.801 Q 389.65 10.909 387.89 7.87 A 7.772 7.772 0 0 0 387.475 7.226 A 7.012 7.012 0 0 0 383.061 4.427 A 11.137 11.137 0 0 0 380.75 4.201 Z M 443.1 4.201 A 11.189 11.189 0 0 0 440.424 4.501 A 7.11 7.11 0 0 0 436.325 7.126 A 9.164 9.164 0 0 0 434.975 9.75 Q 434.155 12.164 434.103 15.674 A 32.428 32.428 0 0 0 434.1 16.151 A 32.321 32.321 0 0 0 434.267 19.564 Q 434.638 23.046 435.833 25.174 A 7.964 7.964 0 0 0 436.275 25.876 A 7.027 7.027 0 0 0 440.812 28.746 A 11.085 11.085 0 0 0 443 28.951 A 11.337 11.337 0 0 0 445.641 28.663 A 7.048 7.048 0 0 0 449.8 26.001 A 9.182 9.182 0 0 0 451.097 23.454 Q 452 20.805 452 16.801 Q 452 10.909 450.24 7.87 A 7.772 7.772 0 0 0 449.825 7.226 A 7.012 7.012 0 0 0 445.411 4.427 A 11.137 11.137 0 0 0 443.1 4.201 Z M 247.45 28.251 L 247.6 22.851 L 247.4 4.351 L 240.2 4.351 L 239.95 6.901 A 175.409 175.409 0 0 1 239.497 11.399 Q 238.775 17.694 237.8 21.276 Q 236.947 24.409 235.62 26.434 A 9.54 9.54 0 0 1 234.1 28.251 L 247.45 28.251 Z M 39.65 20.351 L 44.8 20.251 L 40.2 5.451 L 39.85 5.451 L 34.6 20.251 L 39.65 20.351 Z M 413.15 18.151 L 407.3 18.201 L 407.25 22.401 L 407.4 28.551 Q 409.35 28.701 411 28.701 A 15.733 15.733 0 0 0 413.146 28.564 Q 415.325 28.263 416.7 27.301 A 4.519 4.519 0 0 0 418.651 24.013 A 6.537 6.537 0 0 0 418.7 23.201 Q 418.7 19.288 414.104 18.314 A 13.033 13.033 0 0 0 413.15 18.151 Z M 410.9 4.351 L 407.5 4.351 L 407.35 14.201 L 412.5 14.351 A 8.11 8.11 0 0 0 413.877 13.881 Q 415.061 13.345 415.75 12.476 Q 416.8 11.151 416.8 8.851 A 6.699 6.699 0 0 0 416.687 7.576 Q 416.55 6.867 416.244 6.326 A 3.074 3.074 0 0 0 415.45 5.401 Q 414.1 4.351 410.9 4.351 Z"/>
        </g>
        <g stroke-width=".1764">
            <polygon transform="matrix(6.9329,0,0,6.9329,-342.94,-83.034)"
                     points="118.24 57.735 137.04 42.123 131.96 42.123 113.17 57.09 113.17 83.581 118.24 83.581"
                     fill="#c4261d"/>
            <polygon transform="matrix(6.9329,0,0,6.9329,-342.94,-83.034)"
                     points="97.727 57.735 78.934 42.123 84.01 42.123 102.8 57.09 102.8 83.581 97.727 83.581"
                     fill="#fff"/>
            <polygon transform="matrix(6.9329,0,0,6.9329,-342.94,-83.034)"
                     points="110.54 83.581 110.54 59.792 105.43 59.792 105.43 83.581" fill="#00458e"/>
        </g>
    </g>
</svg>